# xmcd
#
# Track frame offsets:
#	150
#	12483
#	28932
#	46108
#	60660
#	74689
#	86624
#	103741
#	121914
#	137615
#	158249
#	182405
#	196058
#
# Disc length: 2844 seconds
#
# Revision: 0
# Processed by: cddbd v1.4PL0 Copyright (c) Steve Scherf et al.
# Submitted via: dBpowerAMP V4.0
#
DISCID=ad0b1a0d
DTITLE=JP PJ CJ - Too Country
DYEAR=1900
DGENRE=
TTITLE0=Tall Tall Trees
TTITLE1=Too Country
TTITLE2=Here in the real world
TTITLE3=Chasin that neon rainbow
TTITLE4=Don't rock the jukebox
TTITLE5=Chattahocie
TTITLE6=Mercury blues
TTITLE7=Livin on love
TTITLE8=Daytime friends night time lovers
TTITLE9=Murder on music row
TTITLE10=Where were you
TTITLE11=Fightin side of me 
TTITLE12=Celebrity
EXTD=Too Country 
EXTT0=
EXTT1=
EXTT2=
EXTT3=
EXTT4=
EXTT5=
EXTT6=
EXTT7=
EXTT8=
EXTT9=
EXTT10=
EXTT11=
EXTT12=
PLAYORDER=
